<?xml version="1.0" encoding="utf-8"?>
<!-- Generator: Adobe Illustrator 16.0.0, SVG Export Plug-In . SVG Version: 6.00 Build 0)  -->
<!DOCTYPE svg PUBLIC "-//W3C//DTD SVG 1.1//EN" "http://www.w3.org/Graphics/SVG/1.1/DTD/svg11.dtd">
<svg version="1.1" id="Layer_1" xmlns="http://www.w3.org/2000/svg" xmlns:xlink="http://www.w3.org/1999/xlink" x="0px" y="0px"
	 width="400px" height="400px" viewBox="0 0 400 400" enable-background="new 0 0 400 400" xml:space="preserve">
<g>
	<polygon fill="#7D7873" points="163.775,306.762 163.077,287.241 233.914,287.233 233.246,306.15 	"/>
	<path fill="#7F7A77" d="M151.19,346.949c-2.261-1.477-52.729-22.152-52.729-22.152c-22.467,6.449-27.51,50.348-29.794,76.203
		h53.681L151.19,346.949z"/>
	<path fill="#7F7A77" d="M240.635,346.949c2.26-1.477,52.729-22.152,52.729-22.152c22.469,6.449,27.506,50.348,29.794,76.203
		h-53.681L240.635,346.949z"/>
	<path fill="#F5B67E" d="M195.911,276.682H172.22v13.013c0.018,8.089-1.53,6.407-10.214,10.608c0,0-8.374,5.976-10.925,6.688
		c10.528,29.486,18.142,67.408,38.722,94.01h6.108h6.111c20.58-26.602,28.193-64.521,38.723-94.01
		c-2.553-0.712-10.926-6.688-10.926-6.688c-8.685-4.201-10.231-2.521-10.213-10.608v-13.013H195.911z"/>
	<path fill="#857E79" d="M198.033,348.291c0,0-7.395-8.482-10.796-13.291c-10.291-14.537-24.905-34.427-25.24-34.589
		c-12.631,5.011-58.675,20.705-63.832,24.589c4.187,7.967,10.529,40.758,16.016,76h81.731h81.733
		c5.482-35.242,11.829-68.033,16.012-76c-5.156-3.884-51.201-19.578-63.826-24.589c-0.316,0.154-9.455,20.644-20.069,34.577
		C205.354,340.772,198.033,348.291,198.033,348.291z"/>
	<path fill="#F6C085" d="M259.297,184.897c-3.389,16.763,8.033,30.723,25.531,33.733c17.487,3.006,34.406-6.08,37.789-22.848
		c3.39-16.763-8.032-32.797-25.521-35.804C279.609,156.973,262.686,168.122,259.297,184.897z"/>
	<path fill="#F6C085" d="M137.269,184.897c3.389,16.763-8.04,30.723-25.531,33.733c-17.488,3.006-34.407-6.08-37.79-22.848
		c-3.394-16.763,8.034-32.797,25.521-35.804C116.962,156.973,133.88,168.122,137.269,184.897z"/>
	<path fill="#F8C997" d="M285.56,85.052c-17.075-20.185-43.706-33.438-71.978-34.415c-0.008,0-0.559-0.021-1.465-0.055l0.031-0.96
		c0,0-6.854,0.237-13.931,0.483c-7.079-0.246-13.931-0.483-13.931-0.483l0.028,0.96c-0.907,0.034-1.463,0.055-1.463,0.055
		c-28.279,0.977-54.903,14.23-71.98,34.415c-17.09,20.206-19.361,45.651-18.013,70.021c1.019,18.413,4.766,48.138,5.816,66.56
		c27.175,88.451,173.755,89.897,199.085,0c1.048-18.422,4.789-48.146,5.813-66.56C304.914,130.704,302.649,105.259,285.56,85.052z"
		/>
	<path fill="#402412" d="M111.671,118.969c-1.348,2.549,6.414-23,23.442-23.441c17.826-0.462,128.61,5.401,134.287-1.048
		c18.769,20.671,31.204,105.595,32.271,105.413c5.695-0.96,6.575-44.965,6.575-49.789c-0.032-22.468,7.472-65.737-39.256-92.701
		c-28.738-16.584-88.156-18.235-121.222-8.845c-23.037,6.541-45.122,23.578-53.338,43.427c-9.008,21.795-8.784,38.828-5.812,81.993
		c0.321,4.683,0.957,9.373,1.702,14.014c0.497,3.089,0.951,6.25,1.816,9.277C96.822,213.713,97.266,138.393,111.671,118.969z"/>
	<path fill="#402412" d="M104.932,96.114c0.755,1.896,3.603,11.215,40.776,22.169c37.169,10.957,72.846,11.215,70.146,10.695
		c-2.699-0.521-10.791-6.782-10.791-6.782s26.68,7.564,46.163,6c19.49-1.563,33.578-11.215,31.181-11.215
		c-2.398,0-13.191-4.175-13.191-4.175s24.289-10.171,38.374-24.257c14.089-14.089,18.586-27.387,16.789-26.085
		c-1.798,1.305-13.788,6.52-11.99,4.694c1.796-1.825,3.297-22.693,3.297-22.693s-10.489,6.259-13.491,6.778
		c-2.998,0.525,3.297-17.216,3.297-17.216s-28.775,4.695-45.266,2.607c-16.486-2.083-25.777-6.259-50.063-7.302
		c-24.283-1.044-38.969,5.219-38.969,5.219l3.895-6.782c0,0-34.024,8.475-43.019,14.343c-8.99,5.868-17.382,17.735-17.382,17.735
		s-8.545-2.346-15.437-2.083c-6.897,0.258-9.893,1.692-9.893,1.692l15.585,4.438c0,0-7.04,1.696-12.288,5.738
		s-9.597,8.738-7.346,7.564c2.247-1.172,15.141-2.216,15.141-2.216L104.932,96.114z"/>
	<path fill="#756E6A" d="M173.811,318.201c1.271,0,8.411,0.985,8.411,0.985l5.015,15.813l-17.947-7.214L173.811,318.201z"/>
	<path fill="#9F9993" d="M163.077,287.241l19.145,31.945c0,0-19.709,16.829-19.423,16.093c0.278-0.736-8.846-30.516-8.168-32.091
		C155.314,301.617,163.077,287.241,163.077,287.241z"/>
	<path fill="#756E6A" d="M223.186,318.192c-1.271,0-8.412,0.985-8.412,0.985l-5.014,15.811l17.941-7.21L223.186,318.192z"/>
	<path fill="#9F9993" d="M233.914,287.233l-19.141,31.944c0,0,19.705,16.83,19.424,16.094c-0.281-0.735,8.842-30.512,8.164-32.088
		C241.681,301.608,233.914,287.233,233.914,287.233z"/>
	<path fill="#3E3B3A" d="M105.706,161.236c-4.431,4.287-6.395,7.967-7.943,12.821c0,0-4.072,0.137-5.448,1.172
		c-1.377,1.035-1.405,4.653-0.153,5.443c1.253,0.79,5.348,0.736,5.348,0.736c-0.034,25.563,15.805,43.771,46.02,42.824
		c14.902-0.467,26.664-6.001,35.142-18.622c4.755-7.077,8.133-15.897,8.889-20.472c0.752-4.575,1.373-6.861,2.625-7.515
		c1.013-0.528,6.111-0.595,8.029-0.599c1.921,0.004,7.021,0.07,8.027,0.599c1.252,0.653,1.879,2.94,2.629,7.515
		c0.75,4.574,4.131,13.395,8.886,20.472c8.483,12.621,20.239,18.155,35.147,18.622c30.213,0.947,46.047-17.262,46.02-42.824
		c0,0,4.096,0.054,5.349-0.736c1.253-0.791,1.218-4.408-0.159-5.443c-1.375-1.035-5.441-1.172-5.441-1.172
		c-1.551-4.854-3.514-8.534-7.949-12.821c-4.119-3.988-14.045-6.932-26.214-7.768c-30.134-2.063-99.997-1.926-130.206-0.274
		C121.096,153.912,110.113,156.973,105.706,161.236L105.706,161.236z M190.061,172.342L190.061,172.342
		c-0.737,0.495-1.773-1.127-1.875-1.634c-1.026-5.069,0.34-12.346-7.823-13.668h35.706c-8.162,1.322-6.797,8.599-7.824,13.668
		c-0.1,0.507-1.142,2.096-1.877,1.634C205.631,171.882,190.797,171.843,190.061,172.342L190.061,172.342z M216.207,160.5
		L216.207,160.5c3.882-2.645,12.742-3.651,17.521-3.921c13.53-0.765,46.291-1.355,55.946,8.928
		c3.627,3.868,5.567,8.388,5.819,12.958c0.25,4.574-0.438,11.544-2.006,16.609c-5.707,18.48-19.844,27.055-40.758,26.082
		c-27.729-1.293-41.561-27.667-40.529-49.224C212.455,166.704,213.33,162.458,216.207,160.5L216.207,160.5z M180.22,160.5
		L180.22,160.5c2.882,1.958,3.756,6.204,4.006,11.432c1.031,21.557-12.795,47.931-40.524,49.224
		c-20.914,0.973-35.051-7.602-40.763-26.082c-1.563-5.065-2.25-12.035-2.002-16.609c0.249-4.57,2.189-9.09,5.821-12.958
		c9.653-10.283,42.416-9.693,55.941-8.928C167.484,156.848,176.339,157.855,180.22,160.5z"/>
	<path fill="#5A5858" d="M106.118,165.091c-3.694,3.938-5.668,8.537-5.921,13.191c-0.253,4.657,0.445,11.751,2.036,16.903
		c3.154,10.209,8.837,17.45,16.775,21.774c6.692,3.647,14.979,5.229,24.714,4.774c28.227-1.313,42.301-28.161,41.25-50.102
		c-0.258-5.319-1.147-9.643-4.077-11.636c-3.949-2.69-12.967-3.717-17.837-3.992c-11.169-0.627-35.227-1.144-49.159,4.275
		C110.663,161.539,107.972,163.119,106.118,165.091z"/>
	<path fill="#5A5858" d="M211.74,171.748c-1.043,21.795,12.941,48.463,40.978,49.766c9.696,0.453,17.955-1.127,24.606-4.771
		c7.857-4.304,13.483-11.48,16.608-21.598c1.582-5.119,2.274-12.168,2.026-16.792c-0.258-4.625-2.219-9.194-5.887-13.103
		c-1.832-1.95-4.479-3.51-7.672-4.762c-13.826-5.406-37.779-4.895-48.894-4.267c-4.837,0.271-13.792,1.293-17.718,3.963
		C212.882,162.167,211.992,166.459,211.74,171.748z"/>
	<path fill="#D6825B" d="M239.803,246.637c-7.521,8.375-21.339,13.99-37.141,13.99c-15.803,0-29.623-5.615-37.145-13.99
		c9.167,5.765,21.989,11.6,36.721,11.6C216.968,258.236,230.636,252.401,239.803,246.637z"/>
	<path fill="#E5B17D" d="M183.901,236.912c-0.097-0.025-0.111-0.097-0.029-0.217c0-0.357,0.233-0.707,0.67-1.036
		c3.364-5.634,9.983-22.067,13.013-40.149c3.322,0.179-3.292,30.769-6.146,38.071c2.882-0.437,6.396-0.69,10.185-0.69
		c9.787,0,17.721,1.705,17.721,3.806c0,2.104-7.934,3.81-17.721,3.81C192.145,240.504,184.425,238.916,183.901,236.912z"/>
</g>
</svg>
